<svg xmlns="http://www.w3.org/2000/svg" id="a-letter" width="55.639" height="51.8" viewBox="0 0 55.639 51.8">
  <path id="Path_3" data-name="a" d="M353.762,539.243a2.32,2.32,0,0,0,2.65,2.6,9.058,9.058,0,0,0,4.45-1l-.5,11.3a16.684,16.684,0,0,1-10.8,3.9q-11,0-12.2-8-5,8-14.7,8-16.4,0-16.4-14.1a31.259,31.259,0,0,1,.5-5.3l2.1-11.7q1.6-9,7.35-14.349t15-5.351q9.249,0,12.55,4.3l.5-3h15.2l-5.6,31.5A7.261,7.261,0,0,0,353.762,539.243Zm-29.6-4.8a12.1,12.1,0,0,0-.2,2.5,4.566,4.566,0,0,0,1.5,3.151q1.5,1.551,5.05,1.549a8.126,8.126,0,0,0,6.15-2.8l3-16.8q-1.1-2.5-5.2-2.5-7.7,0-9,7.4Z" transform="translate(-305.762 -504.743)" fill="none" stroke="#fff" stroke-width="2"/>
</svg>
