<svg xmlns="http://www.w3.org/2000/svg" id="D-letter" width="64.596" height="73" viewBox="0 0 64.596 73">
  <path id="Path_7" data-name="D" d="M609.157,482.643q13.1,0,18.7,6.6a19.068,19.068,0,0,1,4.1,12.5,34.87,34.87,0,0,1-.5,5.7l-3.9,22.3q-2,11.3-9.8,18.1t-20.2,6.8h-29.1l12.7-72Zm-6.3,15.6h-6.5l-7.1,40.8h9.5a10.163,10.163,0,0,0,7.35-2.55q2.648-2.55,3.65-8.35l2.9-16.4a22.591,22.591,0,0,0,.4-4Q613.058,498.243,602.858,498.243Z" transform="translate(-567.862 -482.143)" fill="none" stroke="#fff" stroke-width="2"/>
</svg>
