<svg xmlns="http://www.w3.org/2000/svg" id="n-letter" width="56.435" height="51.9" viewBox="0 0 56.435 51.9">
  <path id="Path_6" data-name="n" d="M517.159,523.943q0-4.3-4.15-4.3a8.691,8.691,0,0,0-6.85,3.1l-5.6,31.9h-17l8.5-48.1h15.8l-1.1,5.9a18.373,18.373,0,0,1,14.9-7.3q9,0,11.7,4.4a12.1,12.1,0,0,1,1.7,6.4,42.154,42.154,0,0,1-.5,6.7l-2.7,15.4a6.7,6.7,0,0,0-.1,1.1q0,2.7,3,2.7a8.3,8.3,0,0,0,4.1-1l-.5,11.3a16.3,16.3,0,0,1-10.7,3.9q-13.6,0-13.6-11.4a25.145,25.145,0,0,1,.4-4.3l2.4-13.3A19.245,19.245,0,0,0,517.159,523.943Z" transform="translate(-482.963 -504.643)" fill="none" stroke="#fff" stroke-width="2"/>
</svg>
