<svg xmlns="http://www.w3.org/2000/svg" id="v-letter" width="49.054" height="52.55" viewBox="0 0 49.054 52.55">
  <path id="Path_4" data-name="v" d="M418.772,506.543a83.013,83.013,0,0,1,.011,8.407,73.45,73.45,0,0,1-1.7,13.872,43.417,43.417,0,0,1-4.1,11.762c-2.085,3.956-6.254,9.2-10.27,11.909a32.165,32.165,0,0,1-12.58,5.129,34.134,34.134,0,0,1-9.458.233,12.933,12.933,0,0,1-5.482-2.054c-3.846-3.167-4.1-6.842-4.294-10.013-.149-2.376.4-12.107.758-14.936l1.907-24.31h17l-3.593,20.327c-.2,1-1.326,6.952-1.61,10.3-.378,3.878,2.747,6.426,6.1,4.37,6.461-3.959,9.782-15.705,11.184-21.81.98-4.272,1.9-9.624,2.328-12.687l.078-.5Z" transform="translate(-370.303 -506.043)" fill="none" stroke="#fff" stroke-width="2"/>
</svg>
